<?xml version="1.0" encoding="UTF-8" standalone="no"?>
<!DOCTYPE svg PUBLIC "-//W3C//DTD SVG 1.1//EN"
 "http://www.w3.org/Graphics/SVG/1.1/DTD/svg11.dtd">
<!-- Generated by graphviz version 2.50.0 (0)
 -->
<!-- Pages: 1 -->
<svg width="278pt" height="98pt"
 viewBox="0.00 0.00 278.00 98.25" xmlns="http://www.w3.org/2000/svg" xmlns:xlink="http://www.w3.org/1999/xlink">
<g id="graph0" class="graph" transform="scale(1 1) rotate(0) translate(4 94.25)">
<polygon fill="white" stroke="transparent" points="-4,4 -4,-94.25 274,-94.25 274,4 -4,4"/>
<!-- 1 -->
<g id="node1" class="node">
<title>1</title>
<ellipse fill="none" stroke="black" cx="27" cy="-49.25" rx="27" ry="18"/>
<text text-anchor="middle" x="27" y="-45.55" font-family="Times,serif" font-size="14.00">1</text>
</g>
<!-- 2 -->
<g id="node2" class="node">
<title>2</title>
<ellipse fill="none" stroke="black" cx="243" cy="-46.25" rx="27" ry="18"/>
<text text-anchor="middle" x="243" y="-42.55" font-family="Times,serif" font-size="14.00">2</text>
</g>
<!-- 1&#45;&gt;2 -->
<g id="edge1" class="edge">
<title>1&#45;&gt;2</title>
<path fill="none" stroke="black" d="M50.12,-58.68C57.04,-61.38 64.76,-64.17 72,-66.25 110.55,-77.35 122.12,-77.63 162,-73.25 178.29,-71.46 182.41,-70.3 198,-65.25 202.3,-63.86 206.76,-62.2 211.11,-60.45"/>
<polygon fill="black" stroke="black" points="212.52,-63.66 220.38,-56.55 209.81,-57.21 212.52,-63.66"/>
<text text-anchor="middle" x="135" y="-79.05" font-family="Times,serif" font-size="14.00">0.7</text>
</g>
<!-- 3 -->
<g id="node3" class="node">
<title>3</title>
<ellipse fill="none" stroke="black" cx="135" cy="-46.25" rx="27" ry="18"/>
<text text-anchor="middle" x="135" y="-42.55" font-family="Times,serif" font-size="14.00">3</text>
</g>
<!-- 1&#45;&gt;3 -->
<g id="edge2" class="edge">
<title>1&#45;&gt;3</title>
<path fill="none" stroke="black" d="M54.2,-48.51C67.33,-48.14 83.42,-47.68 97.71,-47.28"/>
<polygon fill="black" stroke="black" points="97.83,-50.78 107.73,-46.99 97.64,-43.78 97.83,-50.78"/>
<text text-anchor="middle" x="81" y="-51.05" font-family="Times,serif" font-size="14.00">0.3</text>
</g>
<!-- 2&#45;&gt;1 -->
<g id="edge3" class="edge">
<title>2&#45;&gt;1</title>
<path fill="none" stroke="black" d="M223.65,-33.3C208.07,-23.16 184.69,-9.85 162,-4.25 138.7,1.49 131.36,1.26 108,-4.25 88.29,-8.9 68.44,-20.02 53.44,-30.04"/>
<polygon fill="black" stroke="black" points="51.43,-27.18 45.21,-35.76 55.42,-32.93 51.43,-27.18"/>
<text text-anchor="middle" x="135" y="-8.05" font-family="Times,serif" font-size="14.00">1</text>
</g>
<!-- 3&#45;&gt;1 -->
<g id="edge4" class="edge">
<title>3&#45;&gt;1</title>
<path fill="none" stroke="black" d="M113.78,-35C101.73,-29.65 86.1,-25.06 72,-28.25 67.1,-29.36 62.1,-31.09 57.32,-33.08"/>
<polygon fill="black" stroke="black" points="55.51,-30.06 47.91,-37.44 58.45,-36.41 55.51,-30.06"/>
<text text-anchor="middle" x="81" y="-32.05" font-family="Times,serif" font-size="14.00">0.4</text>
</g>
<!-- 3&#45;&gt;2 -->
<g id="edge5" class="edge">
<title>3&#45;&gt;2</title>
<path fill="none" stroke="black" d="M162.2,-46.25C175.33,-46.25 191.42,-46.25 205.71,-46.25"/>
<polygon fill="black" stroke="black" points="205.73,-49.75 215.73,-46.25 205.73,-42.75 205.73,-49.75"/>
<text text-anchor="middle" x="189" y="-50.05" font-family="Times,serif" font-size="14.00">0.6</text>
</g>
</g>
</svg>