<?xml version="1.0" encoding="UTF-8" standalone="no"?>
<!DOCTYPE svg PUBLIC "-//W3C//DTD SVG 1.1//EN"
 "http://www.w3.org/Graphics/SVG/1.1/DTD/svg11.dtd">
<!-- Generated by graphviz version 2.50.0 (0)
 -->
<!-- Pages: 1 -->
<svg width="368pt" height="116pt"
 viewBox="0.00 0.00 368.00 116.00" xmlns="http://www.w3.org/2000/svg" xmlns:xlink="http://www.w3.org/1999/xlink">
<g id="graph0" class="graph" transform="scale(1 1) rotate(0) translate(4 112)">
<polygon fill="white" stroke="transparent" points="-4,4 -4,-112 364,-112 364,4 -4,4"/>
<!-- poor -->
<g id="node1" class="node">
<title>poor</title>
<ellipse fill="none" stroke="black" cx="27" cy="-18" rx="27" ry="18"/>
<text text-anchor="middle" x="27" y="-14.3" font-family="Times,serif" font-size="14.00">poor</text>
</g>
<!-- poor&#45;&gt;poor -->
<g id="edge1" class="edge">
<title>poor&#45;&gt;poor</title>
<path fill="none" stroke="black" d="M52.44,-24.69C63.03,-25.15 72,-22.92 72,-18 72,-14.77 68.14,-12.7 62.49,-11.79"/>
<polygon fill="black" stroke="black" points="62.6,-8.29 52.44,-11.31 62.27,-15.28 62.6,-8.29"/>
</g>
<!-- middle class -->
<g id="node2" class="node">
<title>middle class</title>
<ellipse fill="none" stroke="black" cx="171" cy="-90" rx="55.49" ry="18"/>
<text text-anchor="middle" x="171" y="-86.3" font-family="Times,serif" font-size="14.00">middle class</text>
</g>
<!-- poor&#45;&gt;middle class -->
<g id="edge2" class="edge">
<title>poor&#45;&gt;middle class</title>
<path fill="none" stroke="black" d="M44.28,-31.99C63.61,-43.8 95.7,-60.42 122.76,-72.95"/>
<polygon fill="black" stroke="black" points="121.54,-76.24 132.09,-77.2 124.44,-69.87 121.54,-76.24"/>
</g>
<!-- middle class&#45;&gt;poor -->
<g id="edge3" class="edge">
<title>middle class&#45;&gt;poor</title>
<path fill="none" stroke="black" d="M149.22,-73.31C125.96,-59.57 88.83,-40.81 61.58,-28.89"/>
<polygon fill="black" stroke="black" points="62.6,-25.52 52.03,-24.83 59.86,-31.96 62.6,-25.52"/>
</g>
<!-- middle class&#45;&gt;middle class -->
<g id="edge4" class="edge">
<title>middle class&#45;&gt;middle class</title>
<path fill="none" stroke="black" d="M222.68,-96.63C235.06,-96.11 244.25,-93.9 244.25,-90 244.25,-87.26 239.71,-85.35 232.7,-84.28"/>
<polygon fill="black" stroke="black" points="232.95,-80.79 222.68,-83.37 232.32,-87.76 232.95,-80.79"/>
</g>
<!-- rich -->
<g id="node3" class="node">
<title>rich</title>
<ellipse fill="none" stroke="black" cx="315" cy="-18" rx="27" ry="18"/>
<text text-anchor="middle" x="315" y="-14.3" font-family="Times,serif" font-size="14.00">rich</text>
</g>
<!-- middle class&#45;&gt;rich -->
<g id="edge5" class="edge">
<title>middle class&#45;&gt;rich</title>
<path fill="none" stroke="black" d="M210,-77.16C235.03,-65.98 266.83,-49.91 288.85,-37.24"/>
<polygon fill="black" stroke="black" points="290.82,-40.14 297.65,-32.04 287.26,-34.11 290.82,-40.14"/>
</g>
<!-- rich&#45;&gt;poor -->
<g id="edge6" class="edge">
<title>rich&#45;&gt;poor</title>
<path fill="none" stroke="black" d="M287.91,-18C236.23,-18 123.51,-18 64.58,-18"/>
<polygon fill="black" stroke="black" points="64.23,-14.5 54.23,-18 64.23,-21.5 64.23,-14.5"/>
</g>
<!-- rich&#45;&gt;middle class -->
<g id="edge7" class="edge">
<title>rich&#45;&gt;middle class</title>
<path fill="none" stroke="black" d="M289.91,-24.86C265.34,-34.96 227.93,-53.4 201.63,-68.21"/>
<polygon fill="black" stroke="black" points="199.75,-65.25 192.83,-73.28 203.24,-71.32 199.75,-65.25"/>
</g>
<!-- rich&#45;&gt;rich -->
<g id="edge8" class="edge">
<title>rich&#45;&gt;rich</title>
<path fill="none" stroke="black" d="M340.44,-24.69C351.03,-25.15 360,-22.92 360,-18 360,-14.77 356.14,-12.7 350.49,-11.79"/>
<polygon fill="black" stroke="black" points="350.6,-8.29 340.44,-11.31 350.27,-15.28 350.6,-8.29"/>
</g>
</g>
</svg>