<?xml version="1.0" encoding="UTF-8" standalone="no"?>
<!DOCTYPE svg PUBLIC "-//W3C//DTD SVG 1.1//EN"
 "http://www.w3.org/Graphics/SVG/1.1/DTD/svg11.dtd">
<!-- Generated by graphviz version 2.50.0 (0)
 -->
<!-- Pages: 1 -->
<svg width="170pt" height="46pt"
 viewBox="0.00 0.00 170.00 46.47" xmlns="http://www.w3.org/2000/svg" xmlns:xlink="http://www.w3.org/1999/xlink">
<g id="graph0" class="graph" transform="scale(1 1) rotate(0) translate(4 42.47)">
<polygon fill="white" stroke="transparent" points="-4,4 -4,-42.47 166,-42.47 166,4 -4,4"/>
<!-- 0 -->
<g id="node1" class="node">
<title>0</title>
<ellipse fill="none" stroke="black" cx="27" cy="-20.47" rx="27" ry="18"/>
<text text-anchor="middle" x="27" y="-16.77" font-family="Times,serif" font-size="14.00">0</text>
</g>
<!-- 1 -->
<g id="node2" class="node">
<title>1</title>
<ellipse fill="none" stroke="black" cx="135" cy="-20.47" rx="27" ry="18"/>
<text text-anchor="middle" x="135" y="-16.77" font-family="Times,serif" font-size="14.00">1</text>
</g>
<!-- 0&#45;&gt;1 -->
<g id="edge1" class="edge">
<title>0&#45;&gt;1</title>
<path fill="none" stroke="red" d="M54.2,-20.47C67.33,-20.47 83.42,-20.47 97.71,-20.47"/>
<polygon fill="red" stroke="red" points="97.73,-23.97 107.73,-20.47 97.73,-16.97 97.73,-23.97"/>
<text text-anchor="middle" x="81" y="-24.27" font-family="Times,serif" font-size="14.00">1.0</text>
</g>
<!-- 1&#45;&gt;0 -->
<g id="edge2" class="edge">
<title>1&#45;&gt;0</title>
<path fill="none" stroke="red" d="M113.86,-8.91C101.85,-3.38 86.22,1.47 72,-1.47 67.48,-2.4 62.85,-3.83 58.37,-5.48"/>
<polygon fill="red" stroke="red" points="56.83,-2.33 48.91,-9.38 59.49,-8.81 56.83,-2.33"/>
<text text-anchor="middle" x="81" y="-5.27" font-family="Times,serif" font-size="14.00">1.0</text>
</g>
</g>
</svg>