<?xml version="1.0" encoding="UTF-8" standalone="no"?>
<!DOCTYPE svg PUBLIC "-//W3C//DTD SVG 1.1//EN"
 "http://www.w3.org/Graphics/SVG/1.1/DTD/svg11.dtd">
<!-- Generated by graphviz version 2.50.0 (0)
 -->
<!-- Pages: 1 -->
<svg width="304pt" height="80pt"
 viewBox="0.00 0.00 304.00 80.09" xmlns="http://www.w3.org/2000/svg" xmlns:xlink="http://www.w3.org/1999/xlink">
<g id="graph0" class="graph" transform="scale(1 1) rotate(0) translate(4 76.09)">
<polygon fill="white" stroke="transparent" points="-4,4 -4,-76.09 300,-76.09 300,4 -4,4"/>
<!-- ng -->
<g id="node1" class="node">
<title>ng</title>
<ellipse fill="none" stroke="black" cx="27" cy="-21.09" rx="27" ry="18"/>
<text text-anchor="middle" x="27" y="-17.39" font-family="Times,serif" font-size="14.00">ng</text>
</g>
<!-- ng&#45;&gt;ng -->
<g id="edge1" class="edge">
<title>ng&#45;&gt;ng</title>
<path fill="none" stroke="black" d="M16.45,-37.76C14.11,-47.72 17.62,-57.09 27,-57.09 33.01,-57.09 36.61,-53.24 37.8,-47.86"/>
<polygon fill="black" stroke="black" points="41.3,-47.66 37.55,-37.76 34.3,-47.84 41.3,-47.66"/>
<text text-anchor="middle" x="27" y="-60.89" font-family="Times,serif" font-size="14.00">0.971</text>
</g>
<!-- mr -->
<g id="node2" class="node">
<title>mr</title>
<ellipse fill="none" stroke="black" cx="148" cy="-21.09" rx="27" ry="18"/>
<text text-anchor="middle" x="148" y="-17.39" font-family="Times,serif" font-size="14.00">mr</text>
</g>
<!-- ng&#45;&gt;mr -->
<g id="edge2" class="edge">
<title>ng&#45;&gt;mr</title>
<path fill="none" stroke="black" d="M54.12,-21.09C70.78,-21.09 92.61,-21.09 110.92,-21.09"/>
<polygon fill="black" stroke="black" points="110.95,-24.59 120.95,-21.09 110.95,-17.59 110.95,-24.59"/>
<text text-anchor="middle" x="87.5" y="-24.89" font-family="Times,serif" font-size="14.00">0.029</text>
</g>
<!-- mr&#45;&gt;ng -->
<g id="edge3" class="edge">
<title>mr&#45;&gt;ng</title>
<path fill="none" stroke="black" d="M126.09,-10C118.97,-6.78 110.82,-3.71 103,-2.09 89.51,0.7 85.49,0.7 72,-2.09 67.48,-3.03 62.85,-4.45 58.37,-6.1"/>
<polygon fill="black" stroke="black" points="56.83,-2.95 48.91,-10 59.49,-9.43 56.83,-2.95"/>
<text text-anchor="middle" x="87.5" y="-5.89" font-family="Times,serif" font-size="14.00">0.145</text>
</g>
<!-- mr&#45;&gt;mr -->
<g id="edge4" class="edge">
<title>mr&#45;&gt;mr</title>
<path fill="none" stroke="black" d="M137.45,-37.76C135.11,-47.72 138.62,-57.09 148,-57.09 154.01,-57.09 157.61,-53.24 158.8,-47.86"/>
<polygon fill="black" stroke="black" points="162.3,-47.66 158.55,-37.76 155.3,-47.84 162.3,-47.66"/>
<text text-anchor="middle" x="148" y="-60.89" font-family="Times,serif" font-size="14.00">0.778</text>
</g>
<!-- sr -->
<g id="node3" class="node">
<title>sr</title>
<ellipse fill="none" stroke="black" cx="269" cy="-21.09" rx="27" ry="18"/>
<text text-anchor="middle" x="269" y="-17.39" font-family="Times,serif" font-size="14.00">sr</text>
</g>
<!-- mr&#45;&gt;sr -->
<g id="edge5" class="edge">
<title>mr&#45;&gt;sr</title>
<path fill="none" stroke="black" d="M175.12,-21.09C191.78,-21.09 213.61,-21.09 231.92,-21.09"/>
<polygon fill="black" stroke="black" points="231.95,-24.59 241.95,-21.09 231.95,-17.59 231.95,-24.59"/>
<text text-anchor="middle" x="208.5" y="-24.89" font-family="Times,serif" font-size="14.00">0.077</text>
</g>
<!-- sr&#45;&gt;mr -->
<g id="edge6" class="edge">
<title>sr&#45;&gt;mr</title>
<path fill="none" stroke="black" d="M247.09,-10C239.97,-6.78 231.82,-3.71 224,-2.09 210.51,0.7 206.49,0.7 193,-2.09 188.48,-3.03 183.85,-4.45 179.37,-6.1"/>
<polygon fill="black" stroke="black" points="177.83,-2.95 169.91,-10 180.49,-9.43 177.83,-2.95"/>
<text text-anchor="middle" x="208.5" y="-5.89" font-family="Times,serif" font-size="14.00">0.508</text>
</g>
<!-- sr&#45;&gt;sr -->
<g id="edge7" class="edge">
<title>sr&#45;&gt;sr</title>
<path fill="none" stroke="black" d="M258.45,-37.76C256.11,-47.72 259.62,-57.09 269,-57.09 275.01,-57.09 278.61,-53.24 279.8,-47.86"/>
<polygon fill="black" stroke="black" points="283.3,-47.66 279.55,-37.76 276.3,-47.84 283.3,-47.66"/>
<text text-anchor="middle" x="269" y="-60.89" font-family="Times,serif" font-size="14.00">0.492</text>
</g>
</g>
</svg>