<?xml version="1.0" encoding="UTF-8" standalone="no"?>
<!DOCTYPE svg PUBLIC "-//W3C//DTD SVG 1.1//EN"
 "http://www.w3.org/Graphics/SVG/1.1/DTD/svg11.dtd">
<!-- Generated by graphviz version 2.50.0 (0)
 -->
<!-- Pages: 1 -->
<svg width="334pt" height="105pt"
 viewBox="0.00 0.00 334.49 105.00" xmlns="http://www.w3.org/2000/svg" xmlns:xlink="http://www.w3.org/1999/xlink">
<g id="graph0" class="graph" transform="scale(1 1) rotate(0) translate(4 101)">
<polygon fill="white" stroke="transparent" points="-4,4 -4,-101 330.49,-101 330.49,4 -4,4"/>
<!-- poor -->
<g id="node1" class="node">
<title>poor</title>
<ellipse fill="none" stroke="black" cx="27" cy="-18" rx="27" ry="18"/>
<text text-anchor="middle" x="27" y="-14.3" font-family="Times,serif" font-size="14.00">poor</text>
</g>
<!-- poor&#45;&gt;poor -->
<g id="edge1" class="edge">
<title>poor&#45;&gt;poor</title>
<path fill="none" stroke="black" d="M17.43,-35.04C15.48,-44.86 18.67,-54 27,-54 32.21,-54 35.41,-50.43 36.6,-45.35"/>
<polygon fill="black" stroke="black" points="40.1,-45.03 36.57,-35.04 33.1,-45.05 40.1,-45.03"/>
<text text-anchor="middle" x="27" y="-57.8" font-family="Times,serif" font-size="14.00">0.9</text>
</g>
<!-- middle class -->
<g id="node2" class="node">
<title>middle class</title>
<ellipse fill="none" stroke="black" cx="163.25" cy="-46" rx="55.49" ry="18"/>
<text text-anchor="middle" x="163.25" y="-42.3" font-family="Times,serif" font-size="14.00">middle class</text>
</g>
<!-- poor&#45;&gt;middle class -->
<g id="edge2" class="edge">
<title>poor&#45;&gt;middle class</title>
<path fill="none" stroke="black" d="M50.55,-27.26C57.35,-29.76 64.9,-32.26 72,-34 80.91,-36.18 90.41,-37.99 99.78,-39.49"/>
<polygon fill="black" stroke="black" points="99.46,-42.98 109.87,-40.99 100.49,-36.06 99.46,-42.98"/>
<text text-anchor="middle" x="81" y="-40.8" font-family="Times,serif" font-size="14.00">0.1</text>
</g>
<!-- middle class&#45;&gt;poor -->
<g id="edge3" class="edge">
<title>middle class&#45;&gt;poor</title>
<path fill="none" stroke="black" d="M133.94,-30.69C120.95,-24.51 105.11,-18.1 90,-15 81.59,-13.27 72.42,-12.91 63.77,-13.23"/>
<polygon fill="black" stroke="black" points="63.3,-9.75 53.56,-13.91 63.77,-16.74 63.3,-9.75"/>
<text text-anchor="middle" x="81" y="-18.8" font-family="Times,serif" font-size="14.00">0.4</text>
</g>
<!-- middle class&#45;&gt;middle class -->
<g id="edge4" class="edge">
<title>middle class&#45;&gt;middle class</title>
<path fill="none" stroke="black" d="M148.61,-63.41C145.87,-73.09 150.75,-82 163.25,-82 171.05,-82 175.89,-78.52 177.75,-73.54"/>
<polygon fill="black" stroke="black" points="181.25,-73.46 177.88,-63.41 174.25,-73.36 181.25,-73.46"/>
<text text-anchor="middle" x="163.25" y="-85.8" font-family="Times,serif" font-size="14.00">0.4</text>
</g>
<!-- rich -->
<g id="node3" class="node">
<title>rich</title>
<ellipse fill="none" stroke="black" cx="299.49" cy="-18" rx="27" ry="18"/>
<text text-anchor="middle" x="299.49" y="-14.3" font-family="Times,serif" font-size="14.00">rich</text>
</g>
<!-- middle class&#45;&gt;rich -->
<g id="edge5" class="edge">
<title>middle class&#45;&gt;rich</title>
<path fill="none" stroke="black" d="M216.62,-40.99C229.13,-39.26 242.36,-36.97 254.49,-34 258.38,-33.05 262.39,-31.87 266.35,-30.59"/>
<polygon fill="black" stroke="black" points="267.64,-33.84 275.94,-27.26 265.35,-27.23 267.64,-33.84"/>
<text text-anchor="middle" x="245.49" y="-40.8" font-family="Times,serif" font-size="14.00">0.2</text>
</g>
<!-- rich&#45;&gt;poor -->
<g id="edge6" class="edge">
<title>rich&#45;&gt;poor</title>
<path fill="none" stroke="black" d="M273.41,-12.58C267.24,-11.33 260.64,-10.05 254.49,-9 190.28,2.01 172.99,0.49 108,-4 93.09,-5.03 76.82,-7.61 62.86,-10.27"/>
<polygon fill="black" stroke="black" points="61.82,-6.91 52.7,-12.31 63.19,-13.78 61.82,-6.91"/>
<text text-anchor="middle" x="163.25" y="-7.8" font-family="Times,serif" font-size="14.00">0.1</text>
</g>
<!-- rich&#45;&gt;middle class -->
<g id="edge7" class="edge">
<title>rich&#45;&gt;middle class</title>
<path fill="none" stroke="black" d="M272.93,-13.91C261.66,-12.84 248.31,-12.57 236.49,-15 224.81,-17.4 212.68,-21.78 201.77,-26.5"/>
<polygon fill="black" stroke="black" points="200.2,-23.37 192.55,-30.69 203.1,-29.74 200.2,-23.37"/>
<text text-anchor="middle" x="245.49" y="-18.8" font-family="Times,serif" font-size="14.00">0.1</text>
</g>
<!-- rich&#45;&gt;rich -->
<g id="edge8" class="edge">
<title>rich&#45;&gt;rich</title>
<path fill="none" stroke="black" d="M289.92,-35.04C287.97,-44.86 291.16,-54 299.49,-54 304.7,-54 307.9,-50.43 309.09,-45.35"/>
<polygon fill="black" stroke="black" points="312.59,-45.03 309.06,-35.04 305.59,-45.05 312.59,-45.03"/>
<text text-anchor="middle" x="299.49" y="-57.8" font-family="Times,serif" font-size="14.00">0.8</text>
</g>
</g>
</svg>