<?xml version="1.0" encoding="UTF-8" standalone="no"?>
<!DOCTYPE svg PUBLIC "-//W3C//DTD SVG 1.1//EN"
 "http://www.w3.org/Graphics/SVG/1.1/DTD/svg11.dtd">
<!-- Generated by graphviz version 2.50.0 (0)
 -->
<!-- Pages: 1 -->
<svg width="385pt" height="126pt"
 viewBox="0.00 0.00 384.78 126.04" xmlns="http://www.w3.org/2000/svg" xmlns:xlink="http://www.w3.org/1999/xlink">
<g id="graph0" class="graph" transform="scale(1 1) rotate(0) translate(4 122.04)">
<polygon fill="white" stroke="transparent" points="-4,4 -4,-122.04 380.78,-122.04 380.78,4 -4,4"/>
<!-- Growth -->
<g id="node1" class="node">
<title>Growth</title>
<ellipse fill="none" stroke="black" cx="37.7" cy="-22.04" rx="37.89" ry="18"/>
<text text-anchor="middle" x="37.7" y="-18.34" font-family="Times,serif" font-size="14.00">Growth</text>
</g>
<!-- Growth&#45;&gt;Growth -->
<g id="edge1" class="edge">
<title>Growth&#45;&gt;Growth</title>
<path fill="none" stroke="black" d="M25.56,-39.45C23.29,-49.12 27.34,-58.04 37.7,-58.04 44.17,-58.04 48.18,-54.56 49.72,-49.58"/>
<polygon fill="black" stroke="black" points="53.22,-49.48 49.84,-39.45 46.22,-49.41 53.22,-49.48"/>
<text text-anchor="middle" x="37.7" y="-61.84" font-family="Times,serif" font-size="14.00">0.68</text>
</g>
<!-- Stagnation -->
<g id="node2" class="node">
<title>Stagnation</title>
<ellipse fill="none" stroke="black" cx="184.49" cy="-67.04" rx="48.19" ry="18"/>
<text text-anchor="middle" x="184.49" y="-63.34" font-family="Times,serif" font-size="14.00">Stagnation</text>
</g>
<!-- Growth&#45;&gt;Stagnation -->
<g id="edge2" class="edge">
<title>Growth&#45;&gt;Stagnation</title>
<path fill="none" stroke="black" d="M58.99,-37.03C68.89,-43.6 81.25,-50.77 93.39,-55.04 103.88,-58.72 115.42,-61.28 126.63,-63.07"/>
<polygon fill="black" stroke="black" points="126.41,-66.57 136.8,-64.49 127.39,-59.64 126.41,-66.57"/>
<text text-anchor="middle" x="105.89" y="-64.84" font-family="Times,serif" font-size="14.00">0.12</text>
</g>
<!-- Collapse -->
<g id="node3" class="node">
<title>Collapse</title>
<ellipse fill="none" stroke="black" cx="335.18" cy="-22.04" rx="41.69" ry="18"/>
<text text-anchor="middle" x="335.18" y="-18.34" font-family="Times,serif" font-size="14.00">Collapse</text>
</g>
<!-- Growth&#45;&gt;Collapse -->
<g id="edge3" class="edge">
<title>Growth&#45;&gt;Collapse</title>
<path fill="none" stroke="black" d="M75.52,-22.04C127.92,-22.04 224.17,-22.04 283.33,-22.04"/>
<polygon fill="black" stroke="black" points="283.57,-25.54 293.57,-22.04 283.57,-18.54 283.57,-25.54"/>
<text text-anchor="middle" x="184.49" y="-25.84" font-family="Times,serif" font-size="14.00">0.20</text>
</g>
<!-- Stagnation&#45;&gt;Growth -->
<g id="edge5" class="edge">
<title>Stagnation&#45;&gt;Growth</title>
<path fill="none" stroke="black" d="M156.6,-52.22C145.12,-46.42 131.39,-40.19 118.39,-36.04 107.64,-32.6 95.77,-29.94 84.57,-27.91"/>
<polygon fill="black" stroke="black" points="84.95,-24.43 74.5,-26.22 83.78,-31.33 84.95,-24.43"/>
<text text-anchor="middle" x="105.89" y="-39.84" font-family="Times,serif" font-size="14.00">0.50</text>
</g>
<!-- Stagnation&#45;&gt;Stagnation -->
<g id="edge4" class="edge">
<title>Stagnation&#45;&gt;Stagnation</title>
<path fill="none" stroke="black" d="M170.56,-84.45C167.96,-94.12 172.61,-103.04 184.49,-103.04 191.92,-103.04 196.51,-99.56 198.28,-94.58"/>
<polygon fill="black" stroke="black" points="201.79,-94.49 198.41,-84.45 194.79,-94.4 201.79,-94.49"/>
<text text-anchor="middle" x="184.49" y="-106.84" font-family="Times,serif" font-size="14.00">0.24</text>
</g>
<!-- Stagnation&#45;&gt;Collapse -->
<g id="edge6" class="edge">
<title>Stagnation&#45;&gt;Collapse</title>
<path fill="none" stroke="black" d="M232.09,-64.24C246.31,-62.48 261.82,-59.64 275.58,-55.04 285.04,-51.88 294.7,-47.16 303.38,-42.27"/>
<polygon fill="black" stroke="black" points="305.19,-45.26 312.02,-37.17 301.63,-39.23 305.19,-45.26"/>
<text text-anchor="middle" x="263.08" y="-64.84" font-family="Times,serif" font-size="14.00">0.26</text>
</g>
<!-- Collapse&#45;&gt;Growth -->
<g id="edge9" class="edge">
<title>Collapse&#45;&gt;Growth</title>
<path fill="none" stroke="black" d="M298.2,-13.63C278.87,-9.54 254.56,-5.07 232.58,-3.04 190.02,0.91 178.95,1.06 136.39,-3.04 118.3,-4.78 98.59,-8.3 81.64,-11.84"/>
<polygon fill="black" stroke="black" points="80.52,-8.5 71.48,-14.03 81.99,-15.34 80.52,-8.5"/>
<text text-anchor="middle" x="184.49" y="-6.84" font-family="Times,serif" font-size="14.00">0.36</text>
</g>
<!-- Collapse&#45;&gt;Stagnation -->
<g id="edge8" class="edge">
<title>Collapse&#45;&gt;Stagnation</title>
<path fill="none" stroke="black" d="M294.52,-26.37C280.45,-28.51 264.62,-31.61 250.58,-36.04 240.82,-39.11 230.66,-43.38 221.34,-47.77"/>
<polygon fill="black" stroke="black" points="219.81,-44.63 212.36,-52.17 222.88,-50.92 219.81,-44.63"/>
<text text-anchor="middle" x="263.08" y="-39.84" font-family="Times,serif" font-size="14.00">0.18</text>
</g>
<!-- Collapse&#45;&gt;Collapse -->
<g id="edge7" class="edge">
<title>Collapse&#45;&gt;Collapse</title>
<path fill="none" stroke="black" d="M322.33,-39.45C319.93,-49.12 324.21,-58.04 335.18,-58.04 342.04,-58.04 346.28,-54.56 347.91,-49.58"/>
<polygon fill="black" stroke="black" points="351.42,-49.49 348.04,-39.45 344.42,-49.4 351.42,-49.49"/>
<text text-anchor="middle" x="335.18" y="-61.84" font-family="Times,serif" font-size="14.00">0.46</text>
</g>
</g>
</svg>