<?xml version="1.0" encoding="UTF-8" standalone="no"?>
<!DOCTYPE svg PUBLIC "-//W3C//DTD SVG 1.1//EN"
 "http://www.w3.org/Graphics/SVG/1.1/DTD/svg11.dtd">
<!-- Generated by graphviz version 2.50.0 (0)
 -->
<!-- Pages: 1 -->
<svg width="226pt" height="164pt"
 viewBox="0.00 0.00 226.49 164.00" xmlns="http://www.w3.org/2000/svg" xmlns:xlink="http://www.w3.org/1999/xlink">
<g id="graph0" class="graph" transform="scale(1 1) rotate(0) translate(4 160)">
<polygon fill="white" stroke="transparent" points="-4,4 -4,-160 222.49,-160 222.49,4 -4,4"/>
<!-- poor -->
<g id="node1" class="node">
<title>poor</title>
<ellipse fill="none" stroke="black" cx="191.49" cy="-105" rx="27" ry="18"/>
<text text-anchor="middle" x="191.49" y="-101.3" font-family="Times,serif" font-size="14.00">poor</text>
</g>
<!-- poor&#45;&gt;poor -->
<g id="edge1" class="edge">
<title>poor&#45;&gt;poor</title>
<path fill="none" stroke="black" d="M181.92,-122.04C179.97,-131.86 183.16,-141 191.49,-141 196.7,-141 199.9,-137.43 201.09,-132.35"/>
<polygon fill="black" stroke="black" points="204.59,-132.03 201.06,-122.04 197.59,-132.05 204.59,-132.03"/>
<text text-anchor="middle" x="191.49" y="-144.8" font-family="Times,serif" font-size="14.00">1.0</text>
</g>
<!-- middle class -->
<g id="node2" class="node">
<title>middle class</title>
<ellipse fill="none" stroke="black" cx="55.25" cy="-56" rx="55.49" ry="18"/>
<text text-anchor="middle" x="55.25" y="-52.3" font-family="Times,serif" font-size="14.00">middle class</text>
</g>
<!-- middle class&#45;&gt;poor -->
<g id="edge2" class="edge">
<title>middle class&#45;&gt;poor</title>
<path fill="none" stroke="black" d="M92.93,-69.39C113.25,-76.81 138.29,-85.95 157.92,-93.11"/>
<polygon fill="black" stroke="black" points="156.76,-96.41 167.36,-96.56 159.16,-89.84 156.76,-96.41"/>
<text text-anchor="middle" x="137.49" y="-90.8" font-family="Times,serif" font-size="14.00">0.1</text>
</g>
<!-- middle class&#45;&gt;middle class -->
<g id="edge3" class="edge">
<title>middle class&#45;&gt;middle class</title>
<path fill="none" stroke="black" d="M40.61,-73.41C37.87,-83.09 42.75,-92 55.25,-92 63.05,-92 67.89,-88.52 69.75,-83.54"/>
<polygon fill="black" stroke="black" points="73.25,-83.46 69.88,-73.41 66.25,-83.36 73.25,-83.46"/>
<text text-anchor="middle" x="55.25" y="-95.8" font-family="Times,serif" font-size="14.00">0.8</text>
</g>
<!-- rich -->
<g id="node3" class="node">
<title>rich</title>
<ellipse fill="none" stroke="black" cx="191.49" cy="-18" rx="27" ry="18"/>
<text text-anchor="middle" x="191.49" y="-14.3" font-family="Times,serif" font-size="14.00">rich</text>
</g>
<!-- middle class&#45;&gt;rich -->
<g id="edge4" class="edge">
<title>middle class&#45;&gt;rich</title>
<path fill="none" stroke="black" d="M101.49,-46C115.96,-42.52 131.98,-38.39 146.49,-34 150.32,-32.84 154.3,-31.54 158.24,-30.18"/>
<polygon fill="black" stroke="black" points="159.56,-33.43 167.81,-26.78 157.22,-26.83 159.56,-33.43"/>
<text text-anchor="middle" x="137.49" y="-41.8" font-family="Times,serif" font-size="14.00">0.1</text>
</g>
<!-- rich&#45;&gt;middle class -->
<g id="edge5" class="edge">
<title>rich&#45;&gt;middle class</title>
<path fill="none" stroke="black" d="M165.39,-13.36C153.96,-12.12 140.37,-11.86 128.49,-15 113.9,-18.85 99.17,-26.4 86.86,-33.98"/>
<polygon fill="black" stroke="black" points="84.86,-31.1 78.35,-39.46 88.65,-36.99 84.86,-31.1"/>
<text text-anchor="middle" x="137.49" y="-18.8" font-family="Times,serif" font-size="14.00">0.2</text>
</g>
<!-- rich&#45;&gt;rich -->
<g id="edge6" class="edge">
<title>rich&#45;&gt;rich</title>
<path fill="none" stroke="black" d="M181.92,-35.04C179.97,-44.86 183.16,-54 191.49,-54 196.7,-54 199.9,-50.43 201.09,-45.35"/>
<polygon fill="black" stroke="black" points="204.59,-45.03 201.06,-35.04 197.59,-45.05 204.59,-45.03"/>
<text text-anchor="middle" x="191.49" y="-57.8" font-family="Times,serif" font-size="14.00">0.8</text>
</g>
</g>
</svg>