<?xml version="1.0" encoding="UTF-8" standalone="no"?>
<!DOCTYPE svg PUBLIC "-//W3C//DTD SVG 1.1//EN"
 "http://www.w3.org/Graphics/SVG/1.1/DTD/svg11.dtd">
<!-- Generated by graphviz version 2.50.0 (0)
 -->
<!-- Pages: 1 -->
<svg width="446pt" height="155pt"
 viewBox="0.00 0.00 445.67 155.39" xmlns="http://www.w3.org/2000/svg" xmlns:xlink="http://www.w3.org/1999/xlink">
<g id="graph0" class="graph" transform="scale(1 1) rotate(0) translate(4 151.39)">
<polygon fill="white" stroke="transparent" points="-4,4 -4,-151.39 441.67,-151.39 441.67,4 -4,4"/>
<!-- 1 -->
<g id="node1" class="node">
<title>1</title>
<ellipse fill="none" stroke="blue" cx="57.84" cy="-57.84" rx="57.69" ry="57.69"/>
<text text-anchor="middle" x="57.84" y="-54.14" font-family="Times,serif" font-size="14.00">New entrants</text>
</g>
<!-- 2 -->
<g id="node2" class="node">
<title>2</title>
<ellipse fill="none" stroke="black" cx="215.23" cy="-57.84" rx="56.59" ry="56.59"/>
<text text-anchor="middle" x="215.23" y="-54.14" font-family="Times,serif" font-size="14.00">Unemployed</text>
</g>
<!-- 1&#45;&gt;2 -->
<g id="edge1" class="edge">
<title>1&#45;&gt;2</title>
<path fill="none" stroke="black" d="M115.82,-57.84C126.39,-57.84 137.51,-57.84 148.32,-57.84"/>
<polygon fill="black" stroke="black" points="148.56,-61.34 158.56,-57.84 148.56,-54.34 148.56,-61.34"/>
<text text-anchor="middle" x="137.19" y="-61.64" font-family="Times,serif" font-size="14.00">b</text>
</g>
<!-- 2&#45;&gt;2 -->
<g id="edge4" class="edge">
<title>2&#45;&gt;2</title>
<path fill="none" stroke="black" d="M201.12,-112.78C202.61,-124.19 207.31,-132.39 215.23,-132.39 220.56,-132.39 224.43,-128.69 226.84,-122.8"/>
<polygon fill="black" stroke="black" points="230.32,-123.33 229.35,-112.78 223.53,-121.64 230.32,-123.33"/>
<text text-anchor="middle" x="215.23" y="-136.19" font-family="Times,serif" font-size="14.00">(1&#45;λ)(1&#45;d)</text>
</g>
<!-- 3 -->
<g id="node3" class="node">
<title>3</title>
<ellipse fill="none" stroke="black" cx="390.23" cy="-57.84" rx="47.39" ry="47.39"/>
<text text-anchor="middle" x="390.23" y="-54.14" font-family="Times,serif" font-size="14.00">Employed</text>
</g>
<!-- 2&#45;&gt;3 -->
<g id="edge2" class="edge">
<title>2&#45;&gt;3</title>
<path fill="none" stroke="black" d="M271.92,-57.84C291.26,-57.84 312.97,-57.84 332.4,-57.84"/>
<polygon fill="black" stroke="black" points="332.63,-61.34 342.63,-57.84 332.63,-54.34 332.63,-61.34"/>
<text text-anchor="middle" x="307.28" y="-61.64" font-family="Times,serif" font-size="14.00">λ(1&#45;d)</text>
</g>
<!-- 3&#45;&gt;2 -->
<g id="edge3" class="edge">
<title>3&#45;&gt;2</title>
<path fill="none" stroke="black" d="M344.87,-42.97C338.21,-41.26 331.36,-39.79 324.78,-38.84 310.16,-36.74 294.49,-37.63 279.73,-39.9"/>
<polygon fill="black" stroke="black" points="278.93,-36.49 269.69,-41.67 280.14,-43.38 278.93,-36.49"/>
<text text-anchor="middle" x="307.28" y="-42.64" font-family="Times,serif" font-size="14.00">α(1&#45;d)</text>
</g>
<!-- 3&#45;&gt;3 -->
<g id="edge5" class="edge">
<title>3&#45;&gt;3</title>
<path fill="none" stroke="black" d="M375.01,-102.81C375.94,-114.49 381.02,-123.29 390.23,-123.29 396.56,-123.29 400.93,-119.13 403.35,-112.73"/>
<polygon fill="black" stroke="black" points="406.81,-113.32 405.44,-102.81 399.96,-111.87 406.81,-113.32"/>
<text text-anchor="middle" x="390.23" y="-127.09" font-family="Times,serif" font-size="14.00">(1&#45;α)(1&#45;d)</text>
</g>
</g>
</svg>